<?xml version="1.0" encoding="iso-8859-1"?>
<!-- Generator: Adobe Illustrator 16.0.0, SVG Export Plug-In . SVG Version: 6.00 Build 0)  -->
<!DOCTYPE svg PUBLIC "-//W3C//DTD SVG 1.1//EN" "http://www.w3.org/Graphics/SVG/1.1/DTD/svg11.dtd">
<svg version="1.1" id="Capa_1" xmlns="http://www.w3.org/2000/svg" xmlns:xlink="http://www.w3.org/1999/xlink" x="0px" y="0px"
	 width="600px" height="600px" viewBox="0 0 600 600" style="enable-background:new 0 0 600 600;" xml:space="preserve">
<g>
	<g>
		<path d="M495,187c14,0,24-12,17-24c-9-15-24-26-42-26H137c-17,0-32.25,2-49,26c-7,12,1.25,25.5,25,24H495z"/>
		<path d="M471,0H133c-30.5,0-52,23-52,50v74c0,14,6,15,19,9c14.75-8.75,25-8,37-8h334c11,0,21,3,29,8c12,7,19,5,19-9V50
			C518,23,498,0,471,0z M465,23c6,0,11,5,11,11s-5,11-11,11s-11-5-11-11C455,28,459,23,465,23z M134.999,83c-6,0-10-5-10-10
			c0-6,5-10,10-10c6,0,10,5,10,10S140.999,83,134.999,83z M165.999,83c-6,0-10-5-10-10c0-6,5-10,10-10c6,0,10,5,10,10
			S171.999,83,165.999,83z M197.999,83c-6,0-10-5-10-10c0-6,5-10,10-10c6,0,10,5,10,10S202.999,83,197.999,83z M253.999,84
			c-11,0-21-9-21-21c0-11,9-21,21-21c11,0,21,9,21,21S264.999,84,253.999,84z M486,87h-65c-6,0-11-7-11-12c0-6,5-12,11-12h65
			c6,0,11,7,11,12C497,81,492,87,486,87z"/>
		<path d="M415,248c-147,0-84,0-231,0c-24,0-41,22-41,45v83c0,23,17,45,41,45c147,0,84,0,231,0c24,0,41-21,41-45v-83
			C456,270,438,248,415,248z"/>
		<path d="M493,198c-385,0-2,0-387,0c-14,0-25,12-25,25v312c0,22,18,40,40,40h11v13c0,7,5,12,12,12h23c7,0,12-5,12-12v-13
			c87,0,154,0,241,0v13c0,7,5,12,12,12h23c7,0,12-5,12-12v-13h11c22,0,40-18,40-40V223C518,210,507,198,493,198z M468,377
			c0,30-25,55-55,55c-70,0-156,0-227,0c-30,0-55-25-55-55v-83c0-30,23-58,53-58c147,0,84,0,231,0c30,0,53,27,53,58V377z"/>
	</g>
</g>
<g>
</g>
<g>
</g>
<g>
</g>
<g>
</g>
<g>
</g>
<g>
</g>
<g>
</g>
<g>
</g>
<g>
</g>
<g>
</g>
<g>
</g>
<g>
</g>
<g>
</g>
<g>
</g>
<g>
</g>
</svg>
