<?xml version="1.0" encoding="iso-8859-1"?>
<!-- Generator: Adobe Illustrator 16.0.0, SVG Export Plug-In . SVG Version: 6.00 Build 0)  -->
<!DOCTYPE svg PUBLIC "-//W3C//DTD SVG 1.1//EN" "http://www.w3.org/Graphics/SVG/1.1/DTD/svg11.dtd">
<svg version="1.1" id="Capa_1" xmlns="http://www.w3.org/2000/svg" xmlns:xlink="http://www.w3.org/1999/xlink" x="0px" y="0px"
	 width="108.976px" height="108.976px" viewBox="0 0 108.976 108.976" style="enable-background:new 0 0 108.976 108.976;"
	 xml:space="preserve">
<g>
	<g>
		<path d="M104.564,99.201h-8.509l-0.273-48.814c1.779-0.999,2.995-2.884,2.995-5.071c0-3.223-2.612-5.839-5.84-5.839
			c-0.425,0-0.837,0.051-1.234,0.138l-28.7-28.983c0.265-0.67,0.425-1.395,0.425-2.158c0-3.224-2.614-5.839-5.84-5.839
			c-2.395,0-4.448,1.445-5.349,3.508H30.333c-1.257-2.998-4.216-5.104-7.671-5.104c-4.592,0-8.315,3.723-8.315,8.315
			c0,1.364,0.36,2.633,0.942,3.77C6.396,16.655,0,26.391,0,37.878c0,0.687,0.031,0.885,0.082,1.553
			c0.086,1.124,2.826,1.547,6.042,1.547h9.156c0.886,2.913,3.737,5.447,7.15,5.447c3.416,0,6.265-2.534,7.15-5.447h9.566
			c3.216,0,5.956-0.423,6.04-1.547c0.049-0.668,0.08-1.109,0.08-1.796c0-11.443-6.361-21.016-15.202-24.571
			c0.356-0.707,0.624-1.46,0.766-2.263h21.406c0.901,2.064,2.955,3.508,5.349,3.508c0.742,0,1.451-0.152,2.102-0.407l28.217,28.5
			c-0.497,0.86-0.806,1.848-0.806,2.913c0,2.585,1.695,4.754,4.021,5.521l0.278,48.369h-0.101H45.47
			c-2.437,0-4.413,1.93-4.413,4.366c0,2.436,1.977,4.366,4.413,4.366h59.09c2.437,0,4.416-1.931,4.416-4.366
			C108.976,101.13,106.996,99.201,104.564,99.201z"/>
		<path d="M34.157,44.85c-0.509-0.343-1.202-0.219-1.548,0.294c-0.343,0.512-0.213,1.203,0.296,1.549l5.045,3.432
			c0.191,0.128,0.407,0.189,0.624,0.189c0.353,0,0.708-0.171,0.925-0.486c0.341-0.51,0.209-1.206-0.299-1.549L34.157,44.85z"/>
		<path d="M9.907,44.85l-5.043,3.432c-0.509,0.344-0.642,1.039-0.297,1.547c0.22,0.314,0.568,0.486,0.927,0.486
			c0.213,0,0.433-0.062,0.626-0.189l5.039-3.43c0.511-0.345,0.645-1.039,0.299-1.549C11.114,44.631,10.421,44.5,9.907,44.85z"/>
		<path d="M22.738,49.74c-0.62,0-1.456,0.497-1.456,1.116v7.263c0,0.621,0.836,1.113,1.456,1.113c0.616,0,1.455-0.492,1.455-1.113
			v-7.263C24.193,50.237,23.351,49.74,22.738,49.74z"/>
	</g>
</g>
<g>
</g>
<g>
</g>
<g>
</g>
<g>
</g>
<g>
</g>
<g>
</g>
<g>
</g>
<g>
</g>
<g>
</g>
<g>
</g>
<g>
</g>
<g>
</g>
<g>
</g>
<g>
</g>
<g>
</g>
</svg>
