<?xml version="1.0" encoding="iso-8859-1"?>
<!-- Generator: Adobe Illustrator 16.0.0, SVG Export Plug-In . SVG Version: 6.00 Build 0)  -->
<!DOCTYPE svg PUBLIC "-//W3C//DTD SVG 1.1//EN" "http://www.w3.org/Graphics/SVG/1.1/DTD/svg11.dtd">
<svg version="1.1" id="Capa_1" xmlns="http://www.w3.org/2000/svg" xmlns:xlink="http://www.w3.org/1999/xlink" x="0px" y="0px"
	 width="601.054px" height="601.054px" viewBox="0 0 601.054 601.054" style="enable-background:new 0 0 601.054 601.054;"
	 xml:space="preserve">
<g>
	<g>
		<circle cx="97.012" cy="64.323" r="14.763"/>
		<circle cx="156.063" cy="64.323" r="14.763"/>
		<circle cx="300.527" cy="358.524" r="155.009"/>
		<path d="M482.952,93.849c15.816,0,28.474-12.653,28.474-28.471s-12.653-28.471-28.474-28.471
			c-15.814,0-28.472,12.654-28.472,28.471S467.135,93.849,482.952,93.849z M482.952,46.397c10.544,0,18.98,8.436,18.98,18.98
			s-8.438,18.98-18.98,18.98c-10.545,0-18.979-8.436-18.979-18.98S472.408,46.397,482.952,46.397z"/>
		<path d="M523.023,0H76.977c-23.198,0-40.07,18.98-40.07,42.179v517.75c0,22.146,17.926,41.125,41.125,41.125h446.044
			c23.199,0,40.07-18.979,40.07-42.18V42.179C564.147,18.98,546.222,0,523.023,0z M70.65,32.689
			c5.272-5.272,11.599-8.436,18.98-8.436l421.792,1.055c14.764,0,26.359,11.599,26.359,26.362v27.417
			c0,14.763-11.6,26.362-26.359,26.362H89.631c-14.763,0-26.362-11.6-26.362-26.362V51.669
			C63.269,44.288,65.378,36.907,70.65,32.689z M538.839,549.385c0,14.767-11.599,26.362-26.357,26.362H88.575
			c-14.763,0-26.362-11.6-26.362-26.362V143.41c0-14.763,11.6-26.362,26.362-26.362h424.956c14.763,0,26.112,11.61,26.112,26.373
			L538.839,549.385z"/>
	</g>
</g>
<g>
</g>
<g>
</g>
<g>
</g>
<g>
</g>
<g>
</g>
<g>
</g>
<g>
</g>
<g>
</g>
<g>
</g>
<g>
</g>
<g>
</g>
<g>
</g>
<g>
</g>
<g>
</g>
<g>
</g>
</svg>
